<?xml version="1.0" encoding="UTF-8"?><svg fill="white" stroke="white" 
id="uuid-900fd8a8-9994-4f16-b26d-13cc2bc761d0" xmlns="http://www.w3.org/2000/svg" viewBox="0 0 841.89 284.68"><defs><style>.uuid-125140db-15ba-4c37-bff1-1e8fa3779992{stroke-width:0px;}</style></defs><path class="uuid-125140db-15ba-4c37-bff1-1e8fa3779992" d="m822.37,201.66c-6.75,1.14-13.54,1.09-20.35.62-13.36-.94-22.42-8.7-30.07-18.77-4.1-5.4-6.43-11.71-9.03-17.85-8-18.88-15.85-37.82-23.78-56.74-.76-1.8-1.2-4.17-2.59-5.15-1.29-.91-3.65-.31-5.53-.39-1.77-.07-3.54-.16-5.3-.25-.09.26-.2.42-.2.57.15,10.03-.65,20.08.86,30.06.29,1.95,1.1,3.85,1.86,5.69.41,1,.21,1.41-.75,1.57-.45.08-.92.06-1.38.06-10.5,0-21,0-31.49,0-2.48,0-2.27-.11-1.53-2.36,1.05-3.2,1.71-6.55,2.21-9.89.38-2.55.35-5.18.35-7.77.02-18.4.08-36.8-.08-55.2-.04-4.29-.76-8.59-1.34-12.86-.17-1.27-.85-2.49-1.42-3.68-.64-1.33-.46-1.72,1.05-1.8.29-.02.58,0,.87,0,17.71,0,35.42,0,53.12,0,6.08,0,12.09.56,17.9,2.49,11.61,3.85,17.52,12.8,16.69,24.98-.73,10.79-6.75,17.65-16.03,22.22-.55.27-1.11.52-1.65.77,3.22,7.4,6.35,14.63,9.51,21.85,6.91,15.84,13.83,31.67,20.76,47.51,5.32,12.16,14.09,21.66,23.59,30.58,1.11,1.04,2.49,1.8,3.75,2.69v1.04Zm-96.77-106.45c4.87,0,9.61.35,14.28-.09,5.7-.54,9.4-4.08,11.24-9.45,1.97-5.75,2.24-11.66,1.02-17.57-1.19-5.79-4.33-10.4-10.31-11.53-5.25-.99-10.72-.76-16.22-1.07v39.71Z"/><path class="uuid-125140db-15ba-4c37-bff1-1e8fa3779992" d="m206.85,260.51c-2.39-.3-4.8-.5-7.17-.9-8.91-1.49-15.79-6.45-21.71-12.94-6.98-7.64-12.14-16.54-16.99-25.58-1.68-3.14-3.43-4.63-7.1-4.22-3.47.39-3.52.08-3.49,3.67.07,9.11.09,18.23.31,27.33.09,3.61.34,7.27,2.33,10.52.51.84.05,1.3-.82,1.4-.4.05-.81.03-1.21.03-10.61,0-21.23,0-31.84,0-2.46,0-2.3-.12-1.47-2.4.99-2.73,1.66-5.63,2.06-8.51.42-3.01.49-6.09.5-9.15.04-18.17.1-36.34-.05-54.51-.04-4.41-.73-8.83-1.3-13.23-.17-1.33-.85-2.62-1.44-3.85-.71-1.47-.58-1.86,1.05-1.9,2.19-.05,4.38-.02,6.58-.02,8.59,0,17.19,0,25.78,0,2.42,0,2.27.14,1.57,2.39-.85,2.72-1.58,5.59-1.66,8.42-.29,9.97-.27,19.95-.4,29.93-.01,1.06.37,1.5,1.4,1.38.06,0,.12,0,.17,0q5.95.15,9.89-4.34c7.54-8.58,15.13-17.11,22.59-25.75,1.64-1.9,2.9-4.15,4.12-6.36.59-1.07.93-2.41.93-3.63,0-1.67.69-2.07,2.18-2.06,6.11.04,12.23.02,18.34.02,1.79,0,3.58-.04,5.36.03.42.02.83.39,1.24.6-.27.33-.47.8-.82.97-10.02,4.81-18.06,12.07-25.36,20.28-3.14,3.54-6.33,7.03-9.53,10.51-.56.61-.81,1.07-.31,1.93,9.36,15.92,19.09,31.58,30.74,45.96,3.5,4.32,7.42,8.22,12.11,11.27.45.29.81.71,1.46,1.28-3.33,1.57-6.64.76-9.73,1.42h-8.31Z"/><path class="uuid-125140db-15ba-4c37-bff1-1e8fa3779992" d="m47.25,19.91c4.34.87,8.7,1.68,13.02,2.63,12.73,2.82,21.37,10.78,26.83,22.23,3.48,7.3,6.32,14.91,9.36,22.42,7.64,18.9,15.09,37.87,22.91,56.69,2.17,5.23,5.37,10.03,8.08,15.04.26.47.58,1.16.41,1.54-.16.35-.94.59-1.44.59-10.96.03-21.92.03-32.87.02-.9,0-1.88-.07-1.81-1.31.26-4.57-1.37-8.74-2.82-12.91-1.7-4.89-3.65-9.7-5.42-14.57-.38-1.05-.95-1.36-2.03-1.36-10.27.04-20.53.03-30.8.01-.86,0-1.48.07-1.9,1.04-2.72,6.3-5.52,12.58-6.63,19.41-.43,2.63-.31,5.36-.31,8.05,0,.99-.18,1.62-1.24,1.62-5.94.01-11.88,0-17.82-.02-.26,0-.53-.2-.79-.31,0-.23,0-.46,0-.69.37-.37.82-.68,1.08-1.11,2.74-4.52,5.9-8.85,8.08-13.63,10.48-22.93,20.7-45.98,30.95-69.01.32-.73.28-1.81-.01-2.58-.91-2.42-1.95-4.8-3.07-7.13-4.25-8.89-8.53-17.77-15.11-25.27-.3-.34-.32-.92-.47-1.39,1.27,0,2.54,0,3.81,0Zm32.55,83.13c-4.32-11.06-8.57-21.96-12.99-33.28-4.81,11.31-9.44,22.19-14.15,33.28h27.14Z"/><path class="uuid-125140db-15ba-4c37-bff1-1e8fa3779992" d="m548.83,98.17h-38.95c-.07.32-.21.64-.21.95.11,10.44.18,20.87.4,31.31.07,3.16.42,6.33,2.08,9.18.47.81.09,1.33-.81,1.43-.46.05-.92.04-1.38.04-10.44,0-20.88,0-31.32,0-.52,0-1.15.12-1.52-.12-.36-.23-.75-1.07-.6-1.31,2.06-3.33,2.38-7.09,2.66-10.81.31-4.08.38-8.18.38-12.27.03-16.84.07-33.69-.07-50.53-.03-4.07-.64-8.15-1.21-12.2-.22-1.55-.96-3.06-1.62-4.51-.62-1.37-.5-1.77,1.03-1.8,2.71-.05,5.42-.01,8.13-.01,8.19,0,16.38,0,24.57,0,2.14,0,2.12.21,1.42,2.15-.75,2.09-1.51,4.32-1.57,6.5-.31,10.78-.39,21.56-.54,32.34,0,.1.09.21.25.54h1.74c11.77,0,23.53-.03,35.3.04,1.62,0,2.04-.46,2.02-2.04-.11-8.59-.03-17.19-.19-25.78-.08-4.24-.14-8.55-2.33-12.45-.13-.23.3-.97.65-1.2.33-.22.89-.09,1.35-.09,10.61,0,21.23,0,31.84,0,2.33,0,2.4.22,1.35,2.33-1.96,3.92-2.27,8.23-2.36,12.48-.2,8.99-.17,17.99-.17,26.99,0,12.11-.06,24.23.17,36.34.07,3.71.94,7.41,1.56,11.09.15.88.68,1.7,1.1,2.52.69,1.32.49,1.71-1.03,1.81-.29.02-.58,0-.86,0-10.44,0-20.88,0-31.32,0-.52,0-1.14.13-1.52-.11-.37-.23-.83-1.06-.69-1.28,1.91-3.16,2.13-6.74,2.2-10.21.22-10.15.18-20.3.23-30.45,0-.22-.07-.44-.14-.85Z"/><path class="uuid-125140db-15ba-4c37-bff1-1e8fa3779992" d="m372.33,166.4c9.63,0,19.27-.19,28.89.06,7.95.21,15.66,1.94,22.89,5.41,12.07,5.8,19.67,15.26,22.35,28.37,2.27,11.11,1.33,22.07-3.13,32.55-5.39,12.67-15.16,20.44-28.19,24.34-6.51,1.95-13.2,2.68-19.98,2.68-17.47,0-34.95,0-52.42,0-2.43,0-2.21-.1-1.45-2.4,1.05-3.19,1.84-6.54,2.19-9.88.44-4.17.42-8.4.42-12.61.03-16.55.07-33.1-.06-49.65-.03-4.13-.59-8.27-1.16-12.37-.24-1.72-1.05-3.38-1.79-4.99-.49-1.08-.25-1.51.83-1.62.57-.06,1.15-.04,1.73-.04,9.63,0,19.26,0,28.89,0,0,.05,0,.1,0,.15Zm1.76,8.3c-.03.39-.1.79-.1,1.18,0,23.99,0,47.98,0,71.98,0,2.81.62,3.39,3.52,3.41,3.86.02,7.73.01,11.59,0,10.21-.03,17.29-4.81,21.37-14.11,3.06-6.99,3.94-14.41,4.23-21.94.33-8.52-.17-16.96-3.3-25.02-2.76-7.12-7.26-12.67-14.93-14.68-7.34-1.91-14.86-1.06-22.39-.82Z"/><path class="uuid-125140db-15ba-4c37-bff1-1e8fa3779992" d="m301.48,44.99c12.34.13,24.24,2.18,35.04,8.54,15.67,9.23,22.68,23.34,22.62,41.21-.05,12.48-3.81,23.61-12.68,32.67-6.89,7.04-15.36,11.38-24.82,13.68-15.95,3.89-31.81,3.64-47.27-2.32-21.36-8.23-31.54-26.25-30.21-48.14.71-11.72,4.83-22.01,13.37-30.27,7.2-6.97,15.92-11.21,25.62-13.25,6.01-1.26,12.17-1.77,18.27-2.62.02.16.04.33.07.49Zm24.75,49.28c-.25-3.91-.35-7.84-.77-11.73-.64-5.87-2.02-11.54-4.69-16.89-7.42-14.89-28.01-14.56-35.87-3.79-3.13,4.28-4.98,9.07-6.07,14.18-2.02,9.45-2.16,19-1.24,28.57.59,6.1,1.85,12.06,4.6,17.63,5.78,11.71,17.09,13.9,26.86,10.86,6.95-2.17,10.87-7.48,13.36-13.99,3.06-7.99,3.65-16.38,3.82-24.84Z"/><path class="uuid-125140db-15ba-4c37-bff1-1e8fa3779992" d="m151.99,72.5c0,.56,0,1.12,0,1.68,0,15.23,0,30.46,0,45.69,0,5.73.32,11.42,2.14,16.92.31.92.75,1.8,1.17,2.68.45.94.39,1.6-.85,1.61-5.25.01-10.5,0-15.75,0-1.03,0-1.42-.49-.86-1.43,2.83-4.75,3.39-10.08,3.43-15.36.17-22.04.11-44.08.08-66.12,0-.65-.41-1.43-.87-1.94-2.02-2.29-4.14-4.49-6.19-6.77-.35-.38-.48-.95-.72-1.44.52-.17,1.03-.48,1.55-.48,9.81-.03,19.62,0,29.42-.03,1.58,0,2.74.61,3.74,1.77,14.05,16.3,28.11,32.58,42.17,48.87,2.47,2.86,4.96,5.72,7.73,8.93.06-.99.13-1.53.13-2.07,0-12.63.05-25.27-.02-37.9-.03-5.49-.43-10.96-2.43-16.16-1.32-3.43-1.37-3.42,2.31-3.42,4.1,0,8.19,0,12.29,0h2.02c-.04.56.06,1.01-.11,1.3-2.58,4.64-3.09,9.76-3.31,14.89-.22,5.01-.12,10.04-.12,15.06,0,20.08,0,40.15,0,60.23,0,2.25,0,2.3-2.29,2.32-4.1.04-8.19-.02-12.29.03-1.44.02-2.46-.49-3.42-1.59-15.23-17.56-30.5-35.09-45.76-52.63-4.28-4.91-8.55-9.83-12.83-14.74-.13.04-.25.08-.38.12Z"/><path class="uuid-125140db-15ba-4c37-bff1-1e8fa3779992" d="m309.65,225.35c0-.5,0-.99,0-1.49,0-12.4.16-24.81-.08-37.21-.09-4.92-.97-9.84-1.66-14.73-.2-1.38-.95-2.7-1.54-4.01-.48-1.08-.34-1.66.95-1.65,5.13,0,10.27,0,15.4,0,1.01,0,1.46.44.94,1.4-2.9,5.37-3.3,11.27-3.36,17.15-.15,14.71-.07,29.42-.07,44.14,0,9.58,0,19.16,0,28.73v1.99c-.52.11-.95.29-1.38.29-4.67.02-9.34.08-14.01-.03-.78-.02-1.75-.6-2.29-1.22-16.62-19.03-33.2-38.1-49.79-57.16-2.84-3.26-5.68-6.53-8.52-9.79-.18-.21-.41-.37-.73-.66-.11.34-.23.53-.23.73.06,17.48.06,34.96.24,52.44.05,4.85.81,9.65,3.12,14.06.38.72.46,1.46-.62,1.47-5.64.04-11.28.02-17.01.02,0-.51-.13-.92.02-1.16,3.33-5.74,3.58-12.12,3.61-18.46.1-20.94.05-41.89,0-62.83,0-.83-.39-1.81-.93-2.44-1.94-2.28-4.04-4.43-6.05-6.66-.35-.39-.51-.96-.76-1.44.5-.19,1.01-.53,1.51-.54,9.75-.02,19.5.02,29.25-.02,1.79,0,3.03.69,4.16,2.01,13.7,15.91,27.43,31.8,41.16,47.69,2.75,3.18,5.5,6.36,8.25,9.54.13-.05.27-.09.4-.14Z"/><path class="uuid-125140db-15ba-4c37-bff1-1e8fa3779992" d="m633.24,56.22c-.04.78-.09,1.34-.09,1.91,0,9.69.02,19.39-.03,29.08,0,1.41.35,1.9,1.82,1.87,5.82-.11,11.67.2,17.47-.24,3.68-.28,7.3-1.53,10.91-2.47,2.39-.62,2.58-.56,2.58,1.89,0,3.75.01,7.5,0,11.25,0,1.69-.46,2.12-1.94,1.49-6.48-2.77-13.28-3.17-20.19-2.93-3.45.12-6.91.02-10.62.02,0,.77,0,1.38,0,2,0,9.23,0,18.46,0,27.69,0,.52,0,1.04.05,1.56.19,2.21.68,2.73,2.91,2.72,5.88-.02,11.82.38,17.63-.28,8.45-.96,15.45-5.43,21.86-10.81.48-.41.94-1.01,1.5-1.12.79-.17,1.78-.2,2.46.15.36.18.42,1.32.31,1.97-.89,5.46-1.83,10.92-2.81,16.36-.39,2.14-1.13,2.74-3.29,2.74-24.06.01-48.12.01-72.18,0-1.96,0-1.92-.32-1.29-2.12.95-2.69,1.73-5.49,2.15-8.31.44-2.89.51-5.86.51-8.8.03-19.04.08-38.08-.06-57.12-.03-3.84-.7-7.68-1.26-11.5-.19-1.33-.86-2.61-1.45-3.85-.68-1.43-.5-1.81,1.12-1.87.29-.01.58,0,.87,0,23.48,0,46.96,0,70.45,0,3.06,0,3.37.3,3.43,3.33.07,4.04.18,8.08.18,12.11,0,.76-.3,2.09-.66,2.16-.84.17-2.03.02-2.68-.5-3.42-2.74-7.24-4.7-11.31-6.23-3.87-1.45-7.84-2.26-12-2.19-4.79.08-9.58.02-14.37.02h-1.97Z"/><path class="uuid-125140db-15ba-4c37-bff1-1e8fa3779992" d="m536.85,259.81c-5.36,0-10.73-.03-16.09.02-1.45.01-1.82-.46-2.06-1.96-.62-3.9-1.38-7.82-2.58-11.58-1.66-5.21-3.8-10.26-5.69-15.4-.33-.91-.85-1.19-1.8-1.19-10.38.03-20.77,0-31.15.06-.58,0-1.45.49-1.68.99-2.99,6.63-5.86,13.31-6.91,20.57-.32,2.2-.23,4.47-.11,6.7.07,1.2-.17,1.77-1.4,1.77-5.71,0-11.42,0-17.13,0-1.13,0-1.61-.48-.79-1.46,6.31-7.55,9.89-16.6,13.85-25.42,9.76-21.7,19.4-43.45,29.05-65.21.5-1.13,1.11-1.51,2.32-1.5,6.4.05,12.81.07,19.21,0,1.36-.02,1.89.52,2.35,1.68,9.37,23.49,18.73,46.98,28.19,70.44,2.74,6.79,5.77,13.46,10.08,19.45.29.4.43,1.11.27,1.54-.1.28-.86.46-1.32.47-5.54.03-11.08.02-16.61.02Zm-30.05-38.02c-4.32-11.06-8.56-21.93-12.81-32.8-.15.02-.29.03-.44.05-4.62,10.87-9.24,21.74-13.92,32.76h27.16Z"/><path class="uuid-125140db-15ba-4c37-bff1-1e8fa3779992" d="m608.55,210.85c3.81-7.04,7.59-13.84,11.19-20.73,2.66-5.1,5.18-10.28,7.58-15.51.97-2.13,1.57-4.44.86-6.89-.41-1.4.72-1.46,1.68-1.46,4.44-.01,8.88,0,13.32,0,1.44,0,2.88-.02,4.33.03.36.01.88.19,1,.45.12.24-.09.82-.33,1.03-8.51,7.34-13.22,17.36-18.76,26.78-5.24,8.89-10.36,17.85-15.5,26.79-.38.67-.72,1.49-.71,2.24.09,8.19.13,16.38.44,24.55.13,3.5.76,6.99,2.77,10.05.82,1.25.03,1.65-1.14,1.65-4.21,0-8.42,0-12.63,0-6.98,0-13.96.02-20.94-.02-.76,0-1.51-.3-2.27-.47.25-.66.57-1.31.75-1.99.86-3.27,2.21-6.51,2.41-9.83.46-7.7.37-15.44.47-23.17,0-.54-.22-1.13-.51-1.61-9.09-15.11-18.13-30.26-27.36-45.29-2.04-3.31-4.8-6.18-7.2-9.27-.32-.41-.44-.97-.66-1.47.47-.15.94-.44,1.41-.44,12.23-.02,24.46-.02,36.68-.01.83,0,1.71.04,1.73,1.19.06,4.37,1.89,8.16,3.9,11.87,5.59,10.28,11.25,20.51,16.89,30.76.11.19.27.35.59.77Z"/><path class="uuid-125140db-15ba-4c37-bff1-1e8fa3779992" d="m63.54,175.03v34.49c.45.06.83.16,1.21.16,6.06,0,12.13.29,18.17-.11,3.97-.26,7.88-1.5,11.82-2.32.56-.12,1.11-.32,1.66-.48.96-.27,1.42.07,1.41,1.09-.01,4.38-.02,8.77,0,13.15,0,1.42-.69,1.44-1.8,1.13-3.16-.88-6.29-2-9.51-2.46-3.4-.48-6.9-.35-10.35-.39-4.14-.05-8.29-.01-12.52-.01-.07.37-.17.64-.17.9.11,9.23.14,18.45.41,27.68.1,3.62.6,7.25,2.61,10.45.57.91.12,1.4-.86,1.49-.34.03-.69.02-1.04.02-10.79,0-21.58,0-32.36,0-2.49,0-2.25-.08-1.5-2.37,1.07-3.25,1.84-6.66,2.22-10.05.43-3.94.39-7.95.4-11.92.03-17.08.06-34.15-.07-51.23-.03-3.78-.57-7.58-1.14-11.34-.26-1.72-1.05-3.39-1.79-4.99-.5-1.08-.25-1.5.82-1.62.46-.05.92-.04,1.38-.04,23.36,0,46.73,0,70.09,0,.52,0,1.04.04,1.56.03,1.33-.03,2.05.57,2.09,1.94.14,4.9.33,9.8.39,14.7,0,.44-.78,1.28-1.16,1.26-.85-.05-1.85-.32-2.49-.85-6.31-5.24-13.59-7.99-21.71-8.35-5.53-.25-11.07-.05-16.61-.05-.33,0-.67.06-1.17.11Z"/><path class="uuid-125140db-15ba-4c37-bff1-1e8fa3779992" d="m399.31,56.64c-12.15-2.06-22.75.88-32.01,8.61-.49.41-.96.92-1.53,1.11-.66.22-1.48.33-2.1.11-.32-.11-.5-1.05-.48-1.61.14-4.9.33-9.8.53-14.7.09-2.17.57-2.64,2.71-2.64,31.89,0,63.79,0,95.68,0,2.29,0,2.88.57,2.96,2.83.17,4.78.34,9.57.45,14.35.01.6-.25,1.68-.53,1.73-.76.13-1.75.06-2.39-.34-1.71-1.06-3.24-2.41-4.92-3.51-4.16-2.73-8.48-5.3-13.47-6.02-3.45-.5-7.01-.27-10.53-.34-1.37-.03-2.73,0-4.18,0-.05.66-.11,1.1-.11,1.55,0,22.03-.04,44.06.09,66.1.02,3.54.63,7.11,1.28,10.61.31,1.7,1.27,3.3,2.1,4.86.6,1.13.35,1.6-.84,1.72-.4.04-.81.02-1.21.02-10.96,0-21.92,0-32.87,0-.52,0-1.14.13-1.52-.11-.37-.23-.81-1.08-.67-1.29,3.27-4.75,3.49-10.25,3.53-15.63.16-22.2.1-44.41.12-66.61,0-.33-.07-.67-.08-.81Z"/></svg>